<?xml version="1.0" encoding="UTF-8"?>
<svg id="Layer_2" data-name="Layer 2" xmlns="http://www.w3.org/2000/svg" viewBox="0 0 182.2 186.23">
  <defs>
    <style>
      .cls-1 {
        fill: #fff;
      }
    </style>
  </defs>
  <g id="Layer_1-2" data-name="Layer 1">
    <g>
      <path class="cls-1" d="M65.96,86.61c5.87,3.25,12.71,2.65,16.43.38,2.21-1.35,3.29-3.18,3.22-5.44h.17V11.55c-4.42-7.14-12.26-11.55-20.69-11.55-10.39,0-19.47,6.66-22.85,16.12,2.42.47,4.77,1.32,6.95,2.57.66.38,1.29.79,1.9,1.22,4-3.02,8.89-4.55,13.97-4.31,5.75.26,11.06,2.75,14.94,6.99,1.44,1.58,2.64,3.35,3.55,5.26l-8.71,4.13c-.5-1.06-1.16-2.03-1.96-2.91-2.15-2.35-5.08-3.72-8.26-3.87-2.53-.11-4.97.57-7.05,1.93.92,1.63,1.66,3.37,2.16,5.22,1.57,5.81.78,11.89-2.23,17.1-.28.49-.58.96-.89,1.42l-7.98-5.41c.18-.26.35-.54.51-.82,1.72-2.99,2.18-6.47,1.28-9.8-.9-3.33-3.04-6.11-6.04-7.83-2.81-1.62-6.1-2.12-9.26-1.41-7.92,2.39-13.48,9.7-13.48,18.12,0,.78.07,1.63.22,2.69l.58,4.09-3.97,1.19C7.59,54.96,0,65.15,0,76.48c0,6.78,2.62,13.19,7.37,18.05l.5.51c2-.27,3.91-1.05,5.57-2.3,2.54-1.92,4.17-4.71,4.61-7.86.16-1.17.15-2.35-.03-3.51l9.52-1.52c.34,2.1.36,4.23.06,6.35-.79,5.69-3.75,10.74-8.34,14.22-3.79,2.86-8.31,4.37-12.98,4.37-.58,0-1.16-.03-1.75-.08-2.94,4.27-4.53,9.32-4.53,14.59,0,10.48,6.26,19.85,15.96,23.88l3.98,1.65-1.2,4.13c-.43,1.49-.65,3-.65,4.49,0,8.89,7.25,16.13,16.16,16.13.42,0,.88-.02,1.46-.08l2.3-.2c9.2-2.51,15.27-11.6,13.77-21.23-1.18-7.56-6.74-13.65-14.18-15.52l2.35-9.34c8.49,2.13,15.36,7.92,18.96,15.55,5.66-1.74,9.29-7.47,8.23-13.44-.21-1.17-.58-2.29-1.11-3.33l8.59-4.37c.97,1.89,1.65,3.92,2.02,6.02,1.94,10.89-4.74,21.34-15.13,24.4,1.33,12.72-6.01,24.57-17.47,29.35,4.85,5.54,11.87,8.82,19.47,8.82,9.17,0,17.62-4.85,22.28-12.69v-77.43c-3.27,1.61-7.03,2.42-10.89,2.42-4.64,0-9.41-1.16-13.61-3.49-5.16-2.86-13.84-9.99-13.99-25.66l9.65-.09c.1,10.25,4.96,15.08,9.02,17.33Z"/>
      <g>
        <rect class="cls-1" x="166.69" y="71.41" width="15.51" height="15.92"/>
        <rect class="cls-1" x="157.81" y="142.83" width="15.51" height="15.92"/>
        <rect class="cls-1" x="93.84" y="63.15" width="18.36" height="18.85"/>
        <rect class="cls-1" x="93.77" y=".66" width="21.7" height="22.27"/>
        <rect class="cls-1" x="136.24" y="169.64" width="15.51" height="15.92"/>
        <polygon class="cls-1" points="153.28 124.52 141.1 132.05 141.73 131.87 125.38 131.87 117.01 115.47 117.01 98.9 136.65 88.56 153.28 88.56 153.28 64.72 133.91 64.72 119.13 48.34 119.13 39.42 129.99 32.7 142.36 32.7 142.36 16.78 126.85 16.78 126.85 28.31 115.32 35.45 102.96 35.45 102.96 52.05 115.27 52.05 130.05 68.42 130.05 85.95 110.41 96.29 93.77 96.29 93.77 120.13 114.62 120.13 122.99 136.54 122.99 151.85 115.91 159.51 93.97 159.51 93.97 185.89 119.67 185.89 119.67 163.31 126.69 155.72 146.22 155.72 146.22 135.21 158.35 127.71 157.78 127.85 176.52 127.85 176.52 104.01 153.28 104.01 153.28 124.52"/>
        <rect class="cls-1" x="146.2" y="38.9" width="15.51" height="15.92"/>
      </g>
    </g>
  </g>
</svg>